<svg id="Layer_1" data-name="Layer 1" xmlns="http://www.w3.org/2000/svg" viewBox="0 0 500 500"><defs><style>.cls-1{font-size:49.41px;font-family:Montserrat-BlackItalic, Montserrat;font-style:italic;}.cls-1,.cls-9{font-weight:800;}.cls-2,.cls-3{font-size:48.12px;}.cls-3{letter-spacing:-0.01em;}.cls-4,.cls-7{letter-spacing:0em;}.cls-5,.cls-6,.cls-7,.cls-8{fill:#ff1574;}.cls-6{letter-spacing:0em;}.cls-8{letter-spacing:0.01em;}.cls-9{font-size:260.21px;font-family:Montserrat-Black, Montserrat;}.cls-10{fill:none;stroke:#ff1574;stroke-miterlimit:10;stroke-width:32px;}</style></defs><text class="cls-1" transform="translate(51.86 407.31)">A <tspan class="cls-2" x="54.65" y="0">Li</tspan><tspan class="cls-3" x="99.98" y="0">t</tspan><tspan class="cls-2" x="121.63" y="0">tle</tspan><tspan class="cls-4" x="190.63" y="0"> </tspan><tspan class="cls-5" x="205.46" y="0">P</tspan><tspan class="cls-6" x="242.17" y="0">r</tspan><tspan class="cls-7" x="264.45" y="0">oje</tspan><tspan class="cls-8" x="346.33" y="0">c</tspan><tspan class="cls-5" x="377.16" y="0">t</tspan></text><text class="cls-9" transform="translate(181.42 342.89)">*</text><path class="cls-10" d="M258.48,79.35h33.73c31.69,0,57.39,20.45,57.39,45.69v25.38c0,25.23,25.69,45.68,57.38,45.68h0"/><path class="cls-10" d="M258.48,313.75h33.73c31.69,0,57.39-20.46,57.39-45.69V242.68C349.6,217.45,375.29,197,407,197h0"/><path class="cls-10" d="M212.11,79.35H178.37C146.68,79.35,121,99.8,121,125v25.38c0,25.23-25.7,45.68-57.39,45.68h0"/><path class="cls-10" d="M212.11,313.75H178.37c-31.69,0-57.38-20.46-57.38-45.69V242.68C121,217.45,95.29,197,63.6,197h0"/></svg>